<mxfile host="app.diagrams.net" agent="Mozilla/5.0 (X11; Ubuntu; Linux x86_64; rv:135.0) Gecko/20100101 Firefox/135.0" version="26.1.3">
  <diagram name="PÃ¡gina-1" id="kVQ6FnJOVzhc9vqYur7p">
    <mxGraphModel dx="1277" dy="710" grid="1" gridSize="10" guides="1" tooltips="1" connect="1" arrows="1" fold="1" page="1" pageScale="1" pageWidth="827" pageHeight="1169" math="0" shadow="0">
      <root>
        <mxCell id="0" />
        <mxCell id="1" parent="0" />
        <mxCell id="h5LZLs7A5Z7R0ED_bPJL-14" value="" style="shape=table;startSize=0;container=1;collapsible=0;childLayout=tableLayout;" vertex="1" parent="1">
          <mxGeometry x="43" y="180" width="330" height="330" as="geometry" />
        </mxCell>
        <mxCell id="h5LZLs7A5Z7R0ED_bPJL-15" value="" style="shape=tableRow;horizontal=0;startSize=0;swimlaneHead=0;swimlaneBody=0;strokeColor=inherit;top=0;left=0;bottom=0;right=0;collapsible=0;dropTarget=0;fillColor=none;points=[[0,0.5],[1,0.5]];portConstraint=eastwest;" vertex="1" parent="h5LZLs7A5Z7R0ED_bPJL-14">
          <mxGeometry width="330" height="66" as="geometry" />
        </mxCell>
        <mxCell id="h5LZLs7A5Z7R0ED_bPJL-16" value="A" style="shape=partialRectangle;html=1;whiteSpace=wrap;connectable=0;strokeColor=inherit;overflow=hidden;fillColor=none;top=0;left=0;bottom=0;right=0;pointerEvents=1;fontStyle=1" vertex="1" parent="h5LZLs7A5Z7R0ED_bPJL-15">
          <mxGeometry width="110" height="66" as="geometry">
            <mxRectangle width="110" height="66" as="alternateBounds" />
          </mxGeometry>
        </mxCell>
        <mxCell id="h5LZLs7A5Z7R0ED_bPJL-17" value="B" style="shape=partialRectangle;html=1;whiteSpace=wrap;connectable=0;strokeColor=inherit;overflow=hidden;fillColor=none;top=0;left=0;bottom=0;right=0;pointerEvents=1;fontStyle=1" vertex="1" parent="h5LZLs7A5Z7R0ED_bPJL-15">
          <mxGeometry x="110" width="110" height="66" as="geometry">
            <mxRectangle width="110" height="66" as="alternateBounds" />
          </mxGeometry>
        </mxCell>
        <mxCell id="h5LZLs7A5Z7R0ED_bPJL-18" value="A &amp;amp;&amp;amp; B" style="shape=partialRectangle;html=1;whiteSpace=wrap;connectable=0;strokeColor=inherit;overflow=hidden;fillColor=none;top=0;left=0;bottom=0;right=0;pointerEvents=1;fontStyle=1" vertex="1" parent="h5LZLs7A5Z7R0ED_bPJL-15">
          <mxGeometry x="220" width="110" height="66" as="geometry">
            <mxRectangle width="110" height="66" as="alternateBounds" />
          </mxGeometry>
        </mxCell>
        <mxCell id="h5LZLs7A5Z7R0ED_bPJL-19" value="" style="shape=tableRow;horizontal=0;startSize=0;swimlaneHead=0;swimlaneBody=0;strokeColor=inherit;top=0;left=0;bottom=0;right=0;collapsible=0;dropTarget=0;fillColor=none;points=[[0,0.5],[1,0.5]];portConstraint=eastwest;" vertex="1" parent="h5LZLs7A5Z7R0ED_bPJL-14">
          <mxGeometry y="66" width="330" height="66" as="geometry" />
        </mxCell>
        <mxCell id="h5LZLs7A5Z7R0ED_bPJL-20" value="true" style="shape=partialRectangle;html=1;whiteSpace=wrap;connectable=0;strokeColor=inherit;overflow=hidden;fillColor=none;top=0;left=0;bottom=0;right=0;pointerEvents=1;" vertex="1" parent="h5LZLs7A5Z7R0ED_bPJL-19">
          <mxGeometry width="110" height="66" as="geometry">
            <mxRectangle width="110" height="66" as="alternateBounds" />
          </mxGeometry>
        </mxCell>
        <mxCell id="h5LZLs7A5Z7R0ED_bPJL-21" value="true" style="shape=partialRectangle;html=1;whiteSpace=wrap;connectable=0;strokeColor=inherit;overflow=hidden;fillColor=none;top=0;left=0;bottom=0;right=0;pointerEvents=1;" vertex="1" parent="h5LZLs7A5Z7R0ED_bPJL-19">
          <mxGeometry x="110" width="110" height="66" as="geometry">
            <mxRectangle width="110" height="66" as="alternateBounds" />
          </mxGeometry>
        </mxCell>
        <mxCell id="h5LZLs7A5Z7R0ED_bPJL-22" value="true" style="shape=partialRectangle;html=1;whiteSpace=wrap;connectable=0;strokeColor=inherit;overflow=hidden;fillColor=none;top=0;left=0;bottom=0;right=0;pointerEvents=1;" vertex="1" parent="h5LZLs7A5Z7R0ED_bPJL-19">
          <mxGeometry x="220" width="110" height="66" as="geometry">
            <mxRectangle width="110" height="66" as="alternateBounds" />
          </mxGeometry>
        </mxCell>
        <mxCell id="h5LZLs7A5Z7R0ED_bPJL-23" value="" style="shape=tableRow;horizontal=0;startSize=0;swimlaneHead=0;swimlaneBody=0;strokeColor=inherit;top=0;left=0;bottom=0;right=0;collapsible=0;dropTarget=0;fillColor=none;points=[[0,0.5],[1,0.5]];portConstraint=eastwest;" vertex="1" parent="h5LZLs7A5Z7R0ED_bPJL-14">
          <mxGeometry y="132" width="330" height="66" as="geometry" />
        </mxCell>
        <mxCell id="h5LZLs7A5Z7R0ED_bPJL-24" value="true" style="shape=partialRectangle;html=1;whiteSpace=wrap;connectable=0;strokeColor=inherit;overflow=hidden;fillColor=none;top=0;left=0;bottom=0;right=0;pointerEvents=1;" vertex="1" parent="h5LZLs7A5Z7R0ED_bPJL-23">
          <mxGeometry width="110" height="66" as="geometry">
            <mxRectangle width="110" height="66" as="alternateBounds" />
          </mxGeometry>
        </mxCell>
        <mxCell id="h5LZLs7A5Z7R0ED_bPJL-25" value="false" style="shape=partialRectangle;html=1;whiteSpace=wrap;connectable=0;strokeColor=inherit;overflow=hidden;fillColor=none;top=0;left=0;bottom=0;right=0;pointerEvents=1;" vertex="1" parent="h5LZLs7A5Z7R0ED_bPJL-23">
          <mxGeometry x="110" width="110" height="66" as="geometry">
            <mxRectangle width="110" height="66" as="alternateBounds" />
          </mxGeometry>
        </mxCell>
        <mxCell id="h5LZLs7A5Z7R0ED_bPJL-26" value="false" style="shape=partialRectangle;html=1;whiteSpace=wrap;connectable=0;strokeColor=inherit;overflow=hidden;fillColor=none;top=0;left=0;bottom=0;right=0;pointerEvents=1;" vertex="1" parent="h5LZLs7A5Z7R0ED_bPJL-23">
          <mxGeometry x="220" width="110" height="66" as="geometry">
            <mxRectangle width="110" height="66" as="alternateBounds" />
          </mxGeometry>
        </mxCell>
        <mxCell id="h5LZLs7A5Z7R0ED_bPJL-27" value="" style="shape=tableRow;horizontal=0;startSize=0;swimlaneHead=0;swimlaneBody=0;strokeColor=inherit;top=0;left=0;bottom=0;right=0;collapsible=0;dropTarget=0;fillColor=none;points=[[0,0.5],[1,0.5]];portConstraint=eastwest;" vertex="1" parent="h5LZLs7A5Z7R0ED_bPJL-14">
          <mxGeometry y="198" width="330" height="66" as="geometry" />
        </mxCell>
        <mxCell id="h5LZLs7A5Z7R0ED_bPJL-28" value="false" style="shape=partialRectangle;html=1;whiteSpace=wrap;connectable=0;strokeColor=inherit;overflow=hidden;fillColor=none;top=0;left=0;bottom=0;right=0;pointerEvents=1;" vertex="1" parent="h5LZLs7A5Z7R0ED_bPJL-27">
          <mxGeometry width="110" height="66" as="geometry">
            <mxRectangle width="110" height="66" as="alternateBounds" />
          </mxGeometry>
        </mxCell>
        <mxCell id="h5LZLs7A5Z7R0ED_bPJL-29" value="true" style="shape=partialRectangle;html=1;whiteSpace=wrap;connectable=0;strokeColor=inherit;overflow=hidden;fillColor=none;top=0;left=0;bottom=0;right=0;pointerEvents=1;" vertex="1" parent="h5LZLs7A5Z7R0ED_bPJL-27">
          <mxGeometry x="110" width="110" height="66" as="geometry">
            <mxRectangle width="110" height="66" as="alternateBounds" />
          </mxGeometry>
        </mxCell>
        <mxCell id="h5LZLs7A5Z7R0ED_bPJL-30" value="false" style="shape=partialRectangle;html=1;whiteSpace=wrap;connectable=0;strokeColor=inherit;overflow=hidden;fillColor=none;top=0;left=0;bottom=0;right=0;pointerEvents=1;" vertex="1" parent="h5LZLs7A5Z7R0ED_bPJL-27">
          <mxGeometry x="220" width="110" height="66" as="geometry">
            <mxRectangle width="110" height="66" as="alternateBounds" />
          </mxGeometry>
        </mxCell>
        <mxCell id="h5LZLs7A5Z7R0ED_bPJL-31" value="" style="shape=tableRow;horizontal=0;startSize=0;swimlaneHead=0;swimlaneBody=0;strokeColor=inherit;top=0;left=0;bottom=0;right=0;collapsible=0;dropTarget=0;fillColor=none;points=[[0,0.5],[1,0.5]];portConstraint=eastwest;" vertex="1" parent="h5LZLs7A5Z7R0ED_bPJL-14">
          <mxGeometry y="264" width="330" height="66" as="geometry" />
        </mxCell>
        <mxCell id="h5LZLs7A5Z7R0ED_bPJL-32" value="false" style="shape=partialRectangle;html=1;whiteSpace=wrap;connectable=0;strokeColor=inherit;overflow=hidden;fillColor=none;top=0;left=0;bottom=0;right=0;pointerEvents=1;" vertex="1" parent="h5LZLs7A5Z7R0ED_bPJL-31">
          <mxGeometry width="110" height="66" as="geometry">
            <mxRectangle width="110" height="66" as="alternateBounds" />
          </mxGeometry>
        </mxCell>
        <mxCell id="h5LZLs7A5Z7R0ED_bPJL-33" value="false" style="shape=partialRectangle;html=1;whiteSpace=wrap;connectable=0;strokeColor=inherit;overflow=hidden;fillColor=none;top=0;left=0;bottom=0;right=0;pointerEvents=1;" vertex="1" parent="h5LZLs7A5Z7R0ED_bPJL-31">
          <mxGeometry x="110" width="110" height="66" as="geometry">
            <mxRectangle width="110" height="66" as="alternateBounds" />
          </mxGeometry>
        </mxCell>
        <mxCell id="h5LZLs7A5Z7R0ED_bPJL-34" value="false" style="shape=partialRectangle;html=1;whiteSpace=wrap;connectable=0;strokeColor=inherit;overflow=hidden;fillColor=none;top=0;left=0;bottom=0;right=0;pointerEvents=1;" vertex="1" parent="h5LZLs7A5Z7R0ED_bPJL-31">
          <mxGeometry x="220" width="110" height="66" as="geometry">
            <mxRectangle width="110" height="66" as="alternateBounds" />
          </mxGeometry>
        </mxCell>
        <mxCell id="h5LZLs7A5Z7R0ED_bPJL-36" value="" style="shape=table;startSize=0;container=1;collapsible=0;childLayout=tableLayout;" vertex="1" parent="1">
          <mxGeometry x="453" y="180" width="330" height="330" as="geometry" />
        </mxCell>
        <mxCell id="h5LZLs7A5Z7R0ED_bPJL-37" value="" style="shape=tableRow;horizontal=0;startSize=0;swimlaneHead=0;swimlaneBody=0;strokeColor=inherit;top=0;left=0;bottom=0;right=0;collapsible=0;dropTarget=0;fillColor=none;points=[[0,0.5],[1,0.5]];portConstraint=eastwest;" vertex="1" parent="h5LZLs7A5Z7R0ED_bPJL-36">
          <mxGeometry width="330" height="66" as="geometry" />
        </mxCell>
        <mxCell id="h5LZLs7A5Z7R0ED_bPJL-38" value="A" style="shape=partialRectangle;html=1;whiteSpace=wrap;connectable=0;strokeColor=inherit;overflow=hidden;fillColor=none;top=0;left=0;bottom=0;right=0;pointerEvents=1;fontStyle=1" vertex="1" parent="h5LZLs7A5Z7R0ED_bPJL-37">
          <mxGeometry width="110" height="66" as="geometry">
            <mxRectangle width="110" height="66" as="alternateBounds" />
          </mxGeometry>
        </mxCell>
        <mxCell id="h5LZLs7A5Z7R0ED_bPJL-39" value="B" style="shape=partialRectangle;html=1;whiteSpace=wrap;connectable=0;strokeColor=inherit;overflow=hidden;fillColor=none;top=0;left=0;bottom=0;right=0;pointerEvents=1;fontStyle=1" vertex="1" parent="h5LZLs7A5Z7R0ED_bPJL-37">
          <mxGeometry x="110" width="110" height="66" as="geometry">
            <mxRectangle width="110" height="66" as="alternateBounds" />
          </mxGeometry>
        </mxCell>
        <mxCell id="h5LZLs7A5Z7R0ED_bPJL-40" value="A || B" style="shape=partialRectangle;html=1;whiteSpace=wrap;connectable=0;strokeColor=inherit;overflow=hidden;fillColor=none;top=0;left=0;bottom=0;right=0;pointerEvents=1;fontStyle=1" vertex="1" parent="h5LZLs7A5Z7R0ED_bPJL-37">
          <mxGeometry x="220" width="110" height="66" as="geometry">
            <mxRectangle width="110" height="66" as="alternateBounds" />
          </mxGeometry>
        </mxCell>
        <mxCell id="h5LZLs7A5Z7R0ED_bPJL-41" value="" style="shape=tableRow;horizontal=0;startSize=0;swimlaneHead=0;swimlaneBody=0;strokeColor=inherit;top=0;left=0;bottom=0;right=0;collapsible=0;dropTarget=0;fillColor=none;points=[[0,0.5],[1,0.5]];portConstraint=eastwest;" vertex="1" parent="h5LZLs7A5Z7R0ED_bPJL-36">
          <mxGeometry y="66" width="330" height="66" as="geometry" />
        </mxCell>
        <mxCell id="h5LZLs7A5Z7R0ED_bPJL-42" value="true" style="shape=partialRectangle;html=1;whiteSpace=wrap;connectable=0;strokeColor=inherit;overflow=hidden;fillColor=none;top=0;left=0;bottom=0;right=0;pointerEvents=1;" vertex="1" parent="h5LZLs7A5Z7R0ED_bPJL-41">
          <mxGeometry width="110" height="66" as="geometry">
            <mxRectangle width="110" height="66" as="alternateBounds" />
          </mxGeometry>
        </mxCell>
        <mxCell id="h5LZLs7A5Z7R0ED_bPJL-43" value="true" style="shape=partialRectangle;html=1;whiteSpace=wrap;connectable=0;strokeColor=inherit;overflow=hidden;fillColor=none;top=0;left=0;bottom=0;right=0;pointerEvents=1;" vertex="1" parent="h5LZLs7A5Z7R0ED_bPJL-41">
          <mxGeometry x="110" width="110" height="66" as="geometry">
            <mxRectangle width="110" height="66" as="alternateBounds" />
          </mxGeometry>
        </mxCell>
        <mxCell id="h5LZLs7A5Z7R0ED_bPJL-44" value="true" style="shape=partialRectangle;html=1;whiteSpace=wrap;connectable=0;strokeColor=inherit;overflow=hidden;fillColor=none;top=0;left=0;bottom=0;right=0;pointerEvents=1;" vertex="1" parent="h5LZLs7A5Z7R0ED_bPJL-41">
          <mxGeometry x="220" width="110" height="66" as="geometry">
            <mxRectangle width="110" height="66" as="alternateBounds" />
          </mxGeometry>
        </mxCell>
        <mxCell id="h5LZLs7A5Z7R0ED_bPJL-45" value="" style="shape=tableRow;horizontal=0;startSize=0;swimlaneHead=0;swimlaneBody=0;strokeColor=inherit;top=0;left=0;bottom=0;right=0;collapsible=0;dropTarget=0;fillColor=none;points=[[0,0.5],[1,0.5]];portConstraint=eastwest;" vertex="1" parent="h5LZLs7A5Z7R0ED_bPJL-36">
          <mxGeometry y="132" width="330" height="66" as="geometry" />
        </mxCell>
        <mxCell id="h5LZLs7A5Z7R0ED_bPJL-46" value="true" style="shape=partialRectangle;html=1;whiteSpace=wrap;connectable=0;strokeColor=inherit;overflow=hidden;fillColor=none;top=0;left=0;bottom=0;right=0;pointerEvents=1;" vertex="1" parent="h5LZLs7A5Z7R0ED_bPJL-45">
          <mxGeometry width="110" height="66" as="geometry">
            <mxRectangle width="110" height="66" as="alternateBounds" />
          </mxGeometry>
        </mxCell>
        <mxCell id="h5LZLs7A5Z7R0ED_bPJL-47" value="false" style="shape=partialRectangle;html=1;whiteSpace=wrap;connectable=0;strokeColor=inherit;overflow=hidden;fillColor=none;top=0;left=0;bottom=0;right=0;pointerEvents=1;" vertex="1" parent="h5LZLs7A5Z7R0ED_bPJL-45">
          <mxGeometry x="110" width="110" height="66" as="geometry">
            <mxRectangle width="110" height="66" as="alternateBounds" />
          </mxGeometry>
        </mxCell>
        <mxCell id="h5LZLs7A5Z7R0ED_bPJL-48" value="true" style="shape=partialRectangle;html=1;whiteSpace=wrap;connectable=0;strokeColor=inherit;overflow=hidden;fillColor=none;top=0;left=0;bottom=0;right=0;pointerEvents=1;" vertex="1" parent="h5LZLs7A5Z7R0ED_bPJL-45">
          <mxGeometry x="220" width="110" height="66" as="geometry">
            <mxRectangle width="110" height="66" as="alternateBounds" />
          </mxGeometry>
        </mxCell>
        <mxCell id="h5LZLs7A5Z7R0ED_bPJL-49" value="" style="shape=tableRow;horizontal=0;startSize=0;swimlaneHead=0;swimlaneBody=0;strokeColor=inherit;top=0;left=0;bottom=0;right=0;collapsible=0;dropTarget=0;fillColor=none;points=[[0,0.5],[1,0.5]];portConstraint=eastwest;" vertex="1" parent="h5LZLs7A5Z7R0ED_bPJL-36">
          <mxGeometry y="198" width="330" height="66" as="geometry" />
        </mxCell>
        <mxCell id="h5LZLs7A5Z7R0ED_bPJL-50" value="false" style="shape=partialRectangle;html=1;whiteSpace=wrap;connectable=0;strokeColor=inherit;overflow=hidden;fillColor=none;top=0;left=0;bottom=0;right=0;pointerEvents=1;" vertex="1" parent="h5LZLs7A5Z7R0ED_bPJL-49">
          <mxGeometry width="110" height="66" as="geometry">
            <mxRectangle width="110" height="66" as="alternateBounds" />
          </mxGeometry>
        </mxCell>
        <mxCell id="h5LZLs7A5Z7R0ED_bPJL-51" value="true" style="shape=partialRectangle;html=1;whiteSpace=wrap;connectable=0;strokeColor=inherit;overflow=hidden;fillColor=none;top=0;left=0;bottom=0;right=0;pointerEvents=1;" vertex="1" parent="h5LZLs7A5Z7R0ED_bPJL-49">
          <mxGeometry x="110" width="110" height="66" as="geometry">
            <mxRectangle width="110" height="66" as="alternateBounds" />
          </mxGeometry>
        </mxCell>
        <mxCell id="h5LZLs7A5Z7R0ED_bPJL-52" value="false" style="shape=partialRectangle;html=1;whiteSpace=wrap;connectable=0;strokeColor=inherit;overflow=hidden;fillColor=none;top=0;left=0;bottom=0;right=0;pointerEvents=1;" vertex="1" parent="h5LZLs7A5Z7R0ED_bPJL-49">
          <mxGeometry x="220" width="110" height="66" as="geometry">
            <mxRectangle width="110" height="66" as="alternateBounds" />
          </mxGeometry>
        </mxCell>
        <mxCell id="h5LZLs7A5Z7R0ED_bPJL-53" value="" style="shape=tableRow;horizontal=0;startSize=0;swimlaneHead=0;swimlaneBody=0;strokeColor=inherit;top=0;left=0;bottom=0;right=0;collapsible=0;dropTarget=0;fillColor=none;points=[[0,0.5],[1,0.5]];portConstraint=eastwest;" vertex="1" parent="h5LZLs7A5Z7R0ED_bPJL-36">
          <mxGeometry y="264" width="330" height="66" as="geometry" />
        </mxCell>
        <mxCell id="h5LZLs7A5Z7R0ED_bPJL-54" value="false" style="shape=partialRectangle;html=1;whiteSpace=wrap;connectable=0;strokeColor=inherit;overflow=hidden;fillColor=none;top=0;left=0;bottom=0;right=0;pointerEvents=1;" vertex="1" parent="h5LZLs7A5Z7R0ED_bPJL-53">
          <mxGeometry width="110" height="66" as="geometry">
            <mxRectangle width="110" height="66" as="alternateBounds" />
          </mxGeometry>
        </mxCell>
        <mxCell id="h5LZLs7A5Z7R0ED_bPJL-55" value="false" style="shape=partialRectangle;html=1;whiteSpace=wrap;connectable=0;strokeColor=inherit;overflow=hidden;fillColor=none;top=0;left=0;bottom=0;right=0;pointerEvents=1;" vertex="1" parent="h5LZLs7A5Z7R0ED_bPJL-53">
          <mxGeometry x="110" width="110" height="66" as="geometry">
            <mxRectangle width="110" height="66" as="alternateBounds" />
          </mxGeometry>
        </mxCell>
        <mxCell id="h5LZLs7A5Z7R0ED_bPJL-56" value="false" style="shape=partialRectangle;html=1;whiteSpace=wrap;connectable=0;strokeColor=inherit;overflow=hidden;fillColor=none;top=0;left=0;bottom=0;right=0;pointerEvents=1;" vertex="1" parent="h5LZLs7A5Z7R0ED_bPJL-53">
          <mxGeometry x="220" width="110" height="66" as="geometry">
            <mxRectangle width="110" height="66" as="alternateBounds" />
          </mxGeometry>
        </mxCell>
        <mxCell id="h5LZLs7A5Z7R0ED_bPJL-59" style="edgeStyle=orthogonalEdgeStyle;rounded=0;orthogonalLoop=1;jettySize=auto;html=1;" edge="1" parent="1" source="h5LZLs7A5Z7R0ED_bPJL-57" target="h5LZLs7A5Z7R0ED_bPJL-15">
          <mxGeometry relative="1" as="geometry" />
        </mxCell>
        <mxCell id="h5LZLs7A5Z7R0ED_bPJL-60" style="edgeStyle=orthogonalEdgeStyle;rounded=0;orthogonalLoop=1;jettySize=auto;html=1;" edge="1" parent="1" source="h5LZLs7A5Z7R0ED_bPJL-57" target="h5LZLs7A5Z7R0ED_bPJL-37">
          <mxGeometry relative="1" as="geometry" />
        </mxCell>
        <mxCell id="h5LZLs7A5Z7R0ED_bPJL-57" value="Tabela Verdade" style="text;strokeColor=none;align=center;fillColor=none;html=1;verticalAlign=middle;whiteSpace=wrap;rounded=0;fontSize=21;fontStyle=1" vertex="1" parent="1">
          <mxGeometry x="322" y="100" width="184" height="60" as="geometry" />
        </mxCell>
      </root>
    </mxGraphModel>
  </diagram>
</mxfile>
